PathFileType	4	(X/Y/Z)	32_1_11_p1_0-229_filt_butterworth.trc
DataRate	CameraRate	NumFrames	NumMarkers	Units	OrigDataRate	OrigDataStartFrame	OrigNumFrames
59.0	59.0	5	27	m	59.0	200	229
Frame#	Time	RHip			RKnee			RAnkle			RBigToe			RSmallToe			RHeel			LHip			LKnee			LAnkle			LBigToe			LSmallToe			LHeel			Neck			Head			Nose			RShoulder			RElbow			RWrist			RThumb			RIndex			RPinky			LShoulder			LElbow			LWrist			LThumb			LIndex			LPinky			
		X1	Y1	Z1	X2	Y2	Z2	X3	Y3	Z3	X4	Y4	Z4	X5	Y5	Z5	X6	Y6	Z6	X7	Y7	Z7	X8	Y8	Z8	X9	Y9	Z9	X10	Y10	Z10	X11	Y11	Z11	X12	Y12	Z12	X13	Y13	Z13	X14	Y14	Z14	X15	Y15	Z15	X16	Y16	Z16	X17	Y17	Z17	X18	Y18	Z18	X19	Y19	Z19	X20	Y20	Z20	X21	Y21	Z21	X22	Y22	Z22	X23	Y23	Z23	X24	Y24	Z24	X25	Y25	Z25	X26	Y26	Z26	X27	Y27	Z27	
200	3.389830508474576	0.34228803592679047	0.4019828549429136	1.0565373612618352	0.3346367456756587	0.4562547024362757	1.5150245447773787	0.3281158032715741	0.48318227262904423	1.9109894210710947	0.31871891292420496	0.339466985866299	1.9274921916771188	0.38326893548600405	0.3321701178719095	1.9134965452948813	0.30493956869865546	0.5682843642207467	2.0012728219449167	0.13851886451920564	0.4442410762095195	1.0848341417528613	0.14730627344545544	0.50283279974325	1.5374832457517247	0.13669721271196822	0.5066538885323559	1.9540969558998091	0.151277480778818	0.30251761410777445	1.9072634381344802	0.10614087805741955	0.35097881607599246	1.9295839807742177	0.1502389695980559	0.523435000168138	1.987768024473556	0.2229128931955002	0.39594000652915995	0.536473261254353	0.20245366080433055	0.3676756888569704	0.30164565481600963	0.20395893476738178	0.33510536756259945	0.4167807380416838	0.3697994777399954	0.42632171914214495	0.6198334120740709	0.4211965985024168	0.35878362353070437	0.8617086974796393	0.30575766472780747	0.24561908057671744	1.0581099915213292	0.22191803246771952	0.2552941505296818	1.114950253340541	0.2146759555723834	0.27321093852195555	1.1353799622304162	0.2214478877505373	0.25694396053006	1.146765717870652	0.07307274118846212	0.42623611521955507	0.6281227187141211	0.04511298625845354	0.37847566711618136	0.8891385168479181	0.15596288242566653	0.24953877489279103	1.056480753490208	0.25326583060146385	0.20088259451160637	1.0669540836248181	0.27488245367988146	0.22024558655189527	1.1080901622155426	0.23175711014791428	0.2726034439246465	1.15735852255447
201	3.406779661016949	0.3410418064489187	0.39498185030532107	1.0540222596247597	0.33460588545721004	0.4562226542223645	1.5149748137997865	0.32816839882428134	0.4833201338080617	1.9105856042111418	0.31887396321512224	0.3389236642485929	1.927928443453598	0.3832461649193663	0.33213680530340606	1.9135077409588297	0.30516588458509925	0.5683484000366767	1.9996431747214212	0.13835181501547322	0.43653403467323704	1.0825693030034342	0.14607005108835114	0.5020948802930303	1.5363058377441812	0.13670123281506655	0.5067158960818146	1.9541094778562265	0.15174594872464237	0.3027572491120719	1.9079344724579526	0.10438991071290546	0.3546016467684797	1.931333654014224	0.15025707854963744	0.5235213024236621	1.9877417927285879	0.22292256026477664	0.39595089935068734	0.5365852062885862	0.20242983473979487	0.3676639323184724	0.3016849558098801	0.20397980989150047	0.3351082108017236	0.4168355891160254	0.3697625538207952	0.4265875041206169	0.620788712942414	0.41743327668593283	0.3631621967787617	0.8620055343126878	0.3050277373817201	0.24925545148095812	1.0611323219994224	0.23017897805320042	0.2567621088872868	1.121313974156342	0.218352403260317	0.2766434911404617	1.1436958929352845	0.22161779332907378	0.2658480842549919	1.148947826516608	0.07317339687061054	0.4261610604760225	0.6281644998154313	0.04680927515567194	0.37794540101282414	0.888794929792595	0.15492316336209247	0.250162364921971	1.0585591387408013	0.2533870351801019	0.2038945126341951	1.0718596563511067	0.27386429519534683	0.2202966572799412	1.1119667307358245	0.23092253256033968	0.2728411835659355	1.1611681920527666
202	3.4237288135593222	0.3398727706989197	0.3919691721774695	1.052305696419864	0.3345669596670541	0.45619348725979453	1.5149762746067306	0.32841052609377663	0.4834178593640868	1.9093779415892729	0.3190563017131334	0.3381668173446388	1.9288988685668307	0.3835879317744729	0.3332537274165376	1.9142719956931553	0.30526593078539455	0.5684905523820489	1.9984393697952638	0.13874309405649884	0.43061825749039967	1.079764546515071	0.14545966398898694	0.5018852393849437	1.5353173101981263	0.13670902575031263	0.5067400804982943	1.9541308584193677	0.1518101611260928	0.30285208377872036	1.9080984732517248	0.10308164975928072	0.3561179386702619	1.932294788040683	0.15030971138947585	0.5238329587271441	1.987914346019299	0.2229382856586364	0.396025031873566	0.5366374816500474	0.2023749646143509	0.367629618973631	0.3017271842415204	0.2039919391784579	0.33518756641737957	0.41720263554063436	0.3698391944602744	0.4267495526032228	0.6211670032959888	0.4130791875754215	0.36639803226660667	0.8627902953112998	0.30438650553112545	0.2497867064681406	1.0623685171537047	0.23599088853870834	0.25749889615984534	1.125363141343257	0.2204476449988835	0.27744405903870023	1.1490046618021483	0.2219411959509415	0.2738536165013887	1.1520022656465976	0.07327061326465656	0.42609641736761555	0.6282920797927727	0.04864683633302798	0.3783230240991667	0.8892342965492062	0.15527765133725996	0.25013238976494895	1.0594152210630463	0.25497234973136784	0.20575820353364038	1.0757868164954343	0.2723034366650409	0.21908910969545428	1.1151802628981737	0.22934133080358537	0.2712888224259826	1.1626599384660437
203	3.440677966101695	0.3392770821012363	0.3917910844164689	1.051553250032649	0.3345209293237786	0.45618775201876516	1.5150425322382928	0.3287710636103533	0.48340376819943665	1.9077123923407258	0.31919594445289945	0.33756655111428374	1.9301505369256748	0.3845301057329647	0.3362606942477813	1.916239173109851	0.30532763870610535	0.5686129111094305	1.9979820125833183	0.14042968562697317	0.4260839452907595	1.0774978162428557	0.14511714780911558	0.5021313103217219	1.5346276787151107	0.13672439684938753	0.5067455972432326	1.954148847075618	0.15140774599540047	0.3026980654614766	1.9084566984530749	0.10256900621342366	0.35627662088678375	1.9326696125580514	0.15043615056434367	0.5241686212985319	1.988610345125611	0.22294793665651316	0.39615107280494066	0.5366533573409805	0.20239650545457244	0.36764845409350305	0.3017676474121332	0.20392297274916618	0.3353196764599039	0.4180439855731937	0.3698892914565463	0.4265826783348576	0.6211680115254179	0.40826493313068857	0.3679801978936557	0.8627202723080765	0.30355922477714953	0.24827881110728356	1.0624139738924279	0.2397818090296153	0.2582244073251937	1.1306886006121153	0.22250565242463127	0.2770494610136127	1.1523072408683934	0.22207137551602635	0.2761009146844311	1.1539390150641848	0.07334327216053241	0.4260721179804212	0.6283846066512008	0.051024929336707096	0.3807539502627463	0.8912755739115426	0.1557368817396338	0.2512662257024821	1.0607538964144094	0.2589069128253778	0.20977723333046672	1.0796708229753866	0.2722170475846448	0.2188027772485997	1.1186524534375317	0.22763186967222657	0.27051521873278483	1.163437354348102
204	3.457627118644068	0.33916490942939576	0.3925874481946808	1.051446117735249	0.33452716856272896	0.45628246233291847	1.5150543667489782	0.3290584933768152	0.48328657025066724	1.9064001779916933	0.3192714514921363	0.337288474957713	1.9310825974571126	0.3858129921127911	0.34030632802214295	1.9188878740778423	0.3054949288557544	0.5686781336953763	1.9979905578835475	0.14307122665347521	0.42177801754160094	1.076032924589964	0.14481906857309046	0.5024569756432993	1.5343012161359375	0.13674486526992463	0.50674084300999	1.9541387484478097	0.15040476507850406	0.3022111254273517	1.9093149711394681	0.10253530232984417	0.35583603519984675	1.9329734903265035	0.15062206981857082	0.5240142402578455	1.9898692335170396	0.22295020842200586	0.3961747532307549	0.5366748270798857	0.20275565071024512	0.36787218968835905	0.3017830889265027	0.20370553204888364	0.33520822117992394	0.41909110522949267	0.36990358248142297	0.426237987175029	0.6210783402597126	0.4033930539054665	0.36971528046429003	0.8620682083069671	0.3024610625952277	0.24776072248959286	1.0631638910362369	0.24239453969688385	0.25878532860735526	1.1383224098687883	0.2246799472526269	0.2761860974474836	1.155486816300423	0.221785998464214	0.2735527511360514	1.154240779687942	0.07338278720219803	0.42606746962077613	0.6284230644938983	0.05398339569760601	0.38533260579834966	0.8948959236823111	0.15590826694767454	0.25464721368139587	1.063444197473365	0.2632404817933334	0.21705215495126107	1.0840760331015435	0.27367233191188206	0.22059791562602415	1.1228181890306472	0.22642866102379958	0.2713787599655511	1.1649681748878744
